<svg width="490" height="421" viewBox="0 0 490 421" fill="none" xmlns="http://www.w3.org/2000/svg">
<path d="M37.2361 1.42499C28.5361 3.82499 21.8361 7.82499 14.8361 14.825C2.03609 27.725 -3.06391 46.125 1.83609 61.925C6.43609 76.725 11.0361 75.325 19.9361 56.525C25.3361 45.025 31.4361 38.725 39.3361 36.425C45.8361 34.525 49.3361 35.025 56.2361 38.725C66.2361 44.125 74.3361 56.425 79.7361 74.425C81.4361 79.925 86.2361 97.225 90.4361 112.925C105.736 169.425 123.136 225.925 134.436 254.925C153.936 305.225 175.436 329.625 209.836 340.925C222.036 344.925 240.436 347.725 260.336 348.825C287.736 350.225 397.936 347.725 413.936 345.325C431.936 342.625 434.936 341.125 428.336 338.225C425.236 336.925 419.736 336.425 402.436 335.825C346.536 333.925 265.136 325.725 240.636 319.525C202.436 309.825 187.736 294.225 172.036 247.125C167.836 234.825 164.036 220.625 142.536 138.425C118.036 44.925 115.336 38.025 95.0361 18.725C85.5361 9.62499 76.3361 4.32499 65.4361 1.42499C58.1361 -0.475005 44.2361 -0.475005 37.2361 1.42499Z" fill="black"/>
<path d="M233.059 106.578C231.458 106.491 219.955 105.848 207.569 105C173.702 102.744 151.526 102.964 153.554 105.417C153.905 105.861 174.441 108.469 199.095 111.156C223.838 113.955 246.273 116.684 248.808 117.384L253.582 118.749L251.845 126.701C250.935 131.024 248.239 149.738 245.975 168.2C243.612 186.65 241.621 201.922 241.3 202.086C241.078 202.261 233.098 201.628 223.551 200.61L206.246 198.784L205.83 196.319C205.584 194.981 203.937 184.115 202.296 172.344C197.103 135.892 193.194 121.137 190.492 127.868C187.119 136.031 185.936 154.721 186.537 190.836C186.977 220.589 188.003 239.336 190.277 256.014C193.836 283.213 195.584 286.338 209.59 291.402C232.203 299.489 235.655 300.095 329.414 311.081C423.085 321.956 426.882 322.2 436.59 318.404C444.738 315.029 447.225 310.991 450.734 294.789C454.529 277.01 459.515 257.659 481.7 174.878C488.5 149.497 488.955 147.335 487.936 143.994C486.38 138.375 482.424 136.904 460.965 133.584C443.168 130.794 239.883 106.773 233.059 106.578ZM294.719 124.274C304.703 125.846 313.064 127.531 313.427 127.875C313.69 128.208 311.335 139.712 308.227 153.343C305.231 166.887 302.217 181.435 301.641 185.495C301.164 189.567 300.109 195.988 299.258 199.815L297.847 206.698L280.397 205.257C270.815 204.537 262.583 203.472 262.233 203.028C261.882 202.584 261.389 198.197 261.165 193.237C261.04 188.289 260.371 170.793 259.785 154.312C259.199 137.832 258.614 123.064 258.38 121.627L258.086 118.974L267.323 120.057C272.476 120.761 284.845 122.613 294.719 124.274ZM356.988 134.188C364.688 135.493 370.975 136.834 370.917 137.33C370.87 137.728 368.847 145.545 366.386 154.52C360.909 174.619 356.058 195.396 355.127 203.341C354.743 206.619 353.974 209.751 353.506 210.3C352.327 211.773 318.155 208.675 317.833 207.127C317.652 206.099 318.741 162.429 319.433 142.776C319.589 138.867 319.651 134.042 319.51 131.81L319.467 127.878L331.117 129.848C337.626 131.013 349.177 132.971 356.988 134.188ZM406.854 142.548C416.219 144.25 423.897 145.753 423.984 145.864C424.072 145.975 421.184 154.296 417.479 164.433C413.786 174.472 408.757 189.891 406.109 198.743L401.507 214.817L387.708 214.005C380.013 213.507 373.558 212.75 373.107 212.295C372.757 211.851 373.387 197.023 374.64 179.45C375.795 161.865 376.821 145.372 377.036 142.679L377.186 137.964L383.542 138.709C387.118 139.128 397.588 140.858 406.854 142.548ZM451.187 150.864L465.659 153.667L465.322 156.548C465.147 158.037 463.391 163.571 461.384 168.672C459.365 173.872 454.873 188.146 451.333 200.317L445.005 222.531L437.625 221.063C433.588 220.288 427.886 219.116 424.941 218.469L419.747 217.256L421.518 207.295C422.468 201.768 424.547 188.318 426.126 177.428C427.704 166.538 429.527 155.273 430.162 152.428C431.468 146.439 429.745 146.539 451.187 150.864ZM227.54 209.535C234.796 211.191 241.071 212.631 241.369 212.666C241.667 212.701 241.751 217.14 241.531 222.451C240.906 234.661 241.548 258.397 242.656 266.985C243.155 270.466 243.302 273.504 243.068 273.779C242.847 273.954 239.107 273.214 234.795 272.205C230.495 271.097 224.308 269.768 221.053 269.185C217.203 268.533 215.275 267.803 215.567 267.032C215.736 266.448 215.231 262.16 214.365 257.528C212.983 250.419 208.089 217.425 207.139 208.353C206.845 205.7 206.956 205.613 210.532 206.032C212.617 206.276 220.283 207.879 227.54 209.535ZM284.751 221.373L296.19 223.419L295.419 236.015C294.357 251.093 294.157 273.422 294.925 278.043L295.534 281.437L278.351 279.423L261.169 277.41L262.354 262.144C263.022 253.865 263.261 241.509 262.837 234.815C262.513 228.131 262.399 221.372 262.585 219.783C262.911 217.002 262.911 217.002 268.105 218.215C270.851 218.839 278.341 220.22 284.751 221.373ZM439.843 241.661C436.816 251.173 425.952 294.906 426.444 295.87C426.847 296.722 406.469 295.342 405.669 294.442C405.306 294.098 406.053 291.165 407.12 288.068C409.355 281.886 413.709 261.051 415.736 247.193L416.924 238.774L426.984 238.845C432.516 238.889 437.85 238.91 438.855 238.927C440.356 239.002 440.596 239.534 439.843 241.661ZM349.369 231.865C350.14 232.157 349.74 239.863 348.34 256.11C347.113 269.156 346.167 281.53 346.331 283.563L346.485 287.407L329.601 285.428L312.617 283.438L314.411 273.278C315.956 264.397 317.219 243.301 316.974 230.788L316.978 226.459L332.601 228.893C341.294 230.315 348.796 231.596 349.369 231.865ZM395.635 238.293C393.874 244.732 389.225 272.379 388.411 281.043L387.505 292.213L375.785 290.84L364.065 289.467L365.302 285.786C365.932 283.846 367.696 271.366 369.156 258.046L371.786 233.888L383.868 235.605C391.194 236.665 395.804 237.709 395.635 238.293Z" fill="#FF007A"/>
<path d="M229.2 359.354C226.2 360.154 221.5 362.354 218.5 364.254C209.5 370.254 205 378.654 205 389.454C205 401.554 212.1 411.754 224.5 417.454C229.5 419.754 231.9 420.154 239 420.154C246.4 420.154 248.3 419.754 254.1 417.054C266.5 411.254 273 401.854 273 389.454C273 378.754 268.6 370.454 259.7 364.354C250.8 358.254 239.8 356.454 229.2 359.354ZM247.7 373.054C254.8 377.754 256.7 387.154 252 393.754C244.9 403.654 228.1 402.554 222.5 391.754C219.7 386.454 221.3 378.454 226 374.254C231.3 369.454 241.6 368.854 247.7 373.054Z" fill="black"/>
<path d="M388.3 359.248C373.3 363.548 364.1 375.048 364 389.348C364 395.048 364.5 397.448 366.8 402.048C378.8 426.448 416.6 426.648 429.3 402.448C431.5 398.148 432 396.048 432 389.348C432 382.648 431.5 380.548 429.3 376.248C422.1 362.448 403.6 354.848 388.3 359.248ZM404.5 372.048C411 375.348 413.8 379.948 413.3 386.648C411.8 404.348 385.4 405.848 380.4 388.548C378.5 382.048 382.8 374.748 390.5 371.448C395.4 369.348 399.4 369.448 404.5 372.048Z" fill="black"/>
</svg>
